<svg width="16" height="16" xmlns="http://www.w3.org/2000/svg">
 <metadata id="metadata3839">image/svg+xml</metadata>

 <g>
  <title>background</title>
  <rect x="-1" y="-1" width="18" height="18" id="canvas_background" fill="none"/>
 </g>
 <g>
  <title>Layer 1</title>
  <g stroke="null" id="layer1">
   <path stroke="null" d="m8.212777,0.581c0.46271,0 0.915198,0.03559 1.353826,0.103219c-3.202528,0.729305 -5.535994,2.898796 -5.535994,5.449755c0,2.76303 2.737506,5.078162 6.351718,5.60084c-0.684804,0.174763 -1.413703,0.269473 -2.16955,0.269473c-3.941488,0 -7.156169,-2.565806 -7.156169,-5.711625c0,-3.145875 3.214681,-5.711662 7.156169,-5.711662z" id="path4" stroke-width="1.313411" fill-rule="evenodd" fill="#0000ff"/>
   <path stroke="null" d="m0.620617,9.827586c0.001529,-0.131911 0.007919,-0.262656 0.019746,-0.392463c1.336884,2.393262 4.074665,4.052147 7.240132,4.080597c3.225894,0.029063 6.044725,-1.642973 7.406415,-4.086056c0.016811,0.17477 0.024518,0.351474 0.022528,0.529981c-0.036671,3.31984 -3.365838,5.997885 -7.41098,5.961553c-4.045197,-0.036403 -7.314474,-2.77378 -7.277854,-6.093612l0.000013,0z" id="path6" stroke-width="1.313411" fill-rule="evenodd" fill="#0000ff"/>
   <path stroke="null" d="m8.173188,3.46096l0.012467,1.57016l-1.798997,0.022354l0.024687,1.992524l1.779082,0l-0.005001,1.625907l2.179781,0.004123l0,-2.403471l2.016022,2.392271l2.080578,-0.005781l-2.212937,-2.586352l1.960215,-2.622377l-1.957522,0.021244l-1.898742,2.3276l0.017247,-2.343174l-2.19688,0.004972z" id="path10" stroke-width="1.313411" fill="none"/>
   <rect stroke="null" fill="#0000ff" stroke-width="1.313411" stroke-opacity="null" x="6.422077" y="3.337173" width="8.11804" height="2.180144" id="svg_1"/>
   <rect stroke="null" fill="#0000ff" stroke-width="1.313411" stroke-opacity="null" fill-opacity="null" x="8.834028" y="5.514653" width="3.365499" height="4.615756" id="svg_2"/>
  </g>
 </g>
</svg>