<svg width="582" height="402" xmlns="http://www.w3.org/2000/svg">

 <metadata id="metadata3839">image/svg+xml</metadata>
 <g>
  <title>background</title>
  <rect fill="none" id="canvas_background" height="404" width="584" y="-1" x="-1"/>
 </g>
 <g>
  <title>Layer 1</title>
  <g id="layer1">
   <path fill="#0000ff" fill-rule="evenodd" stroke-width="1.313411" id="path4" d="m86.5501,63.581c1.0927,0 2.16126,0.09591 3.19709,0.27816c-7.56284,1.96537 -13.07337,7.81183 -13.07337,14.68629c0,7.44596 6.46468,13.6849 14.99972,15.09344c-1.61718,0.47096 -3.33849,0.72619 -5.12344,0.72619c-9.30791,0 -16.89945,-6.91447 -16.89945,-15.39199c0,-8.47767 7.59154,-15.39209 16.89945,-15.39209z"/>
   <path fill="#0000ff" fill-rule="evenodd" stroke-width="1.313411" id="path6" d="m68.62105,88.49919c0.00361,-0.35548 0.0187,-0.70782 0.04663,-1.05763c3.15708,6.44949 9.62241,10.91994 17.09773,10.99661c7.61802,0.07832 14.27475,-4.42757 17.49041,-11.01132c0.0397,0.47098 0.0579,0.94717 0.0532,1.42822c-0.0866,8.94648 -7.9485,16.16342 -17.50119,16.06551c-9.55282,-0.0981 -17.27329,-7.47493 -17.18681,-16.42139l0.00003,0z"/>
   <path fill="none" stroke-width="1.313411" id="path10" d="m86.45661,71.34207l0.02944,4.23135l-4.24837,0.06024l0.0583,5.36956l4.20134,0l-0.01181,4.38158l5.1476,0.01111l0,-6.477l4.76088,6.44682l4.91333,-0.01558l-5.2259,-6.96984l4.62909,-7.06692l-4.62273,0.05725l-4.48392,6.27254l0.04073,-6.31451l-5.18798,0.0134z"/>
   <rect stroke="null" id="svg_1" height="5.875167" width="19.170927" y="71.008481" x="82.321322" stroke-opacity="null" stroke-width="1.313411" fill="#0000ff"/>
   <rect stroke="null" id="svg_2" height="12.438785" width="7.947699" y="76.87647" x="88.017198" fill-opacity="null" stroke-opacity="null" stroke-width="1.313411" fill="#0000ff"/>
  </g>
  <text xml:space="preserve" text-anchor="start" font-family="Helvetica, Arial, sans-serif" font-size="24" id="svg_4" y="87.530364" x="100.566794" stroke-opacity="null" stroke-width="0" stroke="null" fill="#0000ff">extil</text>
  <text stroke="null" transform="matrix(0.8732438087463379,0,0,0.8021884698760658,12.899952014475275,26.080390688766663) " xml:space="preserve" text-anchor="start" font-family="Helvetica, Arial, sans-serif" font-size="24" id="svg_5" y="93.203903" x="102.995944" stroke-opacity="null" stroke-width="0" fill="#0000ff">progress</text>
 </g>
</svg>